<?xml version="1.0" encoding="UTF-8" standalone="no"?>
<!-- Generator: Adobe Illustrator 18.1.1, SVG Export Plug-In . SVG Version: 6.00 Build 0)  -->

<svg
   xmlns:dc="http://purl.org/dc/elements/1.1/"
   xmlns:cc="http://creativecommons.org/ns#"
   xmlns:rdf="http://www.w3.org/1999/02/22-rdf-syntax-ns#"
   xmlns:svg="http://www.w3.org/2000/svg"
   xmlns="http://www.w3.org/2000/svg"
   xmlns:sodipodi="http://sodipodi.sourceforge.net/DTD/sodipodi-0.dtd"
   xmlns:inkscape="http://www.inkscape.org/namespaces/inkscape"
   version="1.1"
   id="Calque_1"
   x="0px"
   y="0px"
   viewBox="0 0 131.60001 146.4"
   enable-background="new 0 0 1190.6 841.9"
   xml:space="preserve"
   sodipodi:docname="PAF_logo_only.svg"
   width="34.819168mm"
   height="38.735001mm"
   inkscape:version="0.92.1 r15371"><metadata
     id="metadata81"><rdf:RDF><cc:Work
         rdf:about=""><dc:format>image/svg+xml</dc:format><dc:type
           rdf:resource="http://purl.org/dc/dcmitype/StillImage" /><dc:title></dc:title></cc:Work></rdf:RDF></metadata><defs
     id="defs79" /><sodipodi:namedview
     pagecolor="#ffffff"
     bordercolor="#666666"
     borderopacity="1"
     objecttolerance="10"
     gridtolerance="10"
     guidetolerance="10"
     inkscape:pageopacity="0"
     inkscape:pageshadow="2"
     inkscape:window-width="1916"
     inkscape:window-height="1041"
     id="namedview77"
     showgrid="false"
     units="mm"
     fit-margin-top="0"
     fit-margin-left="0"
     fit-margin-right="0"
     fit-margin-bottom="0"
     inkscape:zoom="0.92390393"
     inkscape:cx="682.2623"
     inkscape:cy="37.419489"
     inkscape:window-x="0"
     inkscape:window-y="18"
     inkscape:window-maximized="0"
     inkscape:current-layer="Calque_1" /><g
     id="g72"
     transform="translate(-208.1,-260.5)"><path
       inkscape:connector-curvature="0"
       id="path58"
       d="m 330.7,290.5 -47.8,-27.6 c -5.5,-3.2 -12.5,-3.2 -18,0 l -47.8,27.6 c -5.5,3.2 -9,9.2 -9,15.6 v 55.2 c 0,6.4 3.4,12.4 9,15.6 l 47.8,27.6 c 2.7,1.6 5.8,2.4 9,2.4 3.2,0 6.3,-0.8 9,-2.4 l 47.8,-27.6 c 5.5,-3.2 9,-9.2 9,-15.6 V 306 c 0,-6.4 -3.4,-12.3 -9,-15.5 z m -0.3,70.8 c 0,3.1 -1.7,5.9 -4.3,7.5 l -47.8,27.6 c -2.6,1.5 -6,1.5 -8.6,0 l -2.1,-1.2 c 0.6,-1.6 1.2,-3.3 1.7,-5 3.1,-12.5 -0.3,-21.6 -1.4,-23.9 0.4,-3.8 0.6,-5.1 0.7,-5.6 1.9,-9.8 3.2,-13.2 3.7,-14.2 2.1,-0.4 4.5,-0.5 7.5,-0.1 1.1,0.1 2.1,-0.7 2.2,-1.8 0.1,-1.1 -0.7,-2.1 -1.8,-2.2 -3.9,-0.4 -7,-0.3 -9.7,0.4 -0.2,0 -0.3,0.1 -0.4,0.2 -0.7,0.4 -2.5,1.3 -5.6,17 -0.1,0.5 -0.3,1.7 -0.8,6.5 0,0.4 0,0.8 0.2,1.1 0,0.1 4.5,9 1.3,21.6 -0.4,1.3 -0.8,2.7 -1.3,4 l -42.2,-24.4 c -2.7,-1.5 -4.3,-4.4 -4.3,-7.5 v -2.9 c 3.4,-3.1 6,-5.4 7.5,-6.8 l 2.1,-1.8 c 3.2,-2.9 6,-5.4 8.1,-12.9 l 7.7,-29.3 c 0.7,0.7 1.5,1.6 2.4,2.5 l 1.5,15.9 7,-7.1 c 0.1,0.1 0.2,0.2 0.2,0.2 0.4,0.4 0.9,0.6 1.5,0.6 0.5,0 1,-0.2 1.4,-0.6 0.8,-0.8 0.8,-2.1 0,-2.9 -4.2,-4.4 -12.4,-12.8 -13.1,-13.6 -0.4,-0.5 -0.5,-0.8 -0.5,-1.1 0,-0.1 0.1,-0.2 0.2,-0.3 1,-0.4 3.1,-0.3 5.2,-0.2 2.4,0.1 5.1,0.3 7.5,-0.3 2.4,-0.5 4.7,-1.5 6.8,-2.4 2,-0.9 3.9,-1.7 5.1,-1.7 0.1,0 0.1,0 0.2,0 l -4.6,18.6 c -0.3,1.1 0.4,2.2 1.5,2.4 1.1,0.3 2.2,-0.4 2.4,-1.5 l 3.7,-15.1 13.1,3.5 c 1.4,0.4 3.3,1.4 3.5,2 0.7,1.9 2.3,6.2 2.3,6.2 0.1,0.4 1.4,4 4.6,4.9 6.7,1.9 14,4.4 18.6,6.3 -0.4,0.8 -0.8,1.7 -1,2.6 -0.5,2.6 1.7,5.1 2.6,6.3 0.1,0.1 0.2,0.3 0.4,0.4 -0.6,1.1 -1.3,2.3 -2,3.5 -1.7,3 -4.3,7.6 -5.5,8.4 -1.8,1.4 -3.7,1.8 -4.1,1.9 -1,0 -2,-0.1 -3,-0.3 -1.1,-0.2 -2.1,0.6 -2.3,1.7 -0.2,1.1 0.6,2.1 1.7,2.3 1.3,0.2 2.4,0.3 3.6,0.3 0,0 0,0 0.1,0 0.1,0 0.2,0 0.3,0 0.1,0 3.2,-0.4 6.2,-2.7 1.7,-1.2 3.6,-4.5 6.5,-9.6 0.8,-1.3 1.6,-2.7 2.3,-3.9 1.5,-1 4.7,-5.4 5.4,-6.3 0.9,-1 1,-3.3 0,-4.3 -0.7,-0.7 -5,-2.2 -7.1,-2.9 -6.5,-3.3 -18.7,-6.9 -21.6,-7.7 -0.9,-0.3 -1.7,-1.7 -1.9,-2.4 0,0 -1.6,-4.3 -2.3,-6.2 -1.1,-3 -5.4,-4.3 -6.3,-4.5 l -13.2,-3.5 0.1,-0.2 c 0.1,-0.3 0.4,-1.8 -0.7,-3.1 -0.6,-0.7 -1.7,-1.5 -3.8,-1.3 -1.9,0.1 -4,1 -6.4,2.1 -2,0.9 -4.1,1.8 -6.1,2.2 -1.9,0.4 -4.2,0.3 -6.4,0.2 -2.7,-0.1 -5.2,-0.3 -7.1,0.6 -1.3,0.6 -2.2,1.7 -2.5,3.1 -0.2,0.9 -0.1,1.9 0.3,2.8 l -8.5,32.2 c -1.7,6.3 -3.8,8.2 -6.9,10.9 l -2.1,1.8 c -1.1,0.9 -2.7,2.4 -4.9,4.4 V 306 c 0,-3.1 1.7,-5.9 4.3,-7.5 l 47.8,-27.6 c 1.3,-0.8 2.8,-1.2 4.3,-1.2 1.5,0 3,0.4 4.3,1.2 l 47.8,27.6 c 2.7,1.5 4.3,4.4 4.3,7.5 v 55.3 z" /><path
       inkscape:connector-curvature="0"
       id="path60"
       d="m 283.2,315.1 c 2.7,0.2 4.7,1.2 4.7,1.2 0,0 -2.8,-2.4 -2.9,-2.3 0.7,-2.6 -0.9,-5.1 -0.9,-5.1 -3.6,1.5 -7.6,3.5 -11.1,6.8 0,0 7.5,-0.8 10.2,-0.6 z" /><path
       inkscape:connector-curvature="0"
       id="path62"
       d="m 297.6,343.7 c -0.5,-0.1 -0.9,0.2 -1,0.7 -0.7,3.8 -3.9,7.6 -8.2,9.6 -0.4,0.2 -0.6,0.7 -0.4,1.1 0.1,0.3 0.4,0.5 0.8,0.5 0.1,0 0.2,0 0.4,-0.1 4.8,-2.2 8.4,-6.5 9.2,-10.8 0,-0.5 -0.3,-0.9 -0.8,-1 z" /><path
       inkscape:connector-curvature="0"
       id="path64"
       d="m 292.5,345.1 c 0.1,-0.5 -0.2,-0.9 -0.6,-1 -0.5,-0.1 -0.9,0.2 -1,0.6 -0.7,2.9 -3.1,5 -7.1,6.3 -0.4,0.1 -0.7,0.6 -0.6,1.1 0.1,0.4 0.4,0.6 0.8,0.6 0.1,0 0.2,0 0.2,0 4.6,-1.5 7.4,-4 8.3,-7.6 z" /><path
       inkscape:connector-curvature="0"
       id="path66"
       d="m 286.1,345.1 c 0.1,-0.4 -0.1,-0.9 -0.6,-1.1 -0.5,-0.1 -0.9,0.1 -1.1,0.6 -0.5,1.5 -1.8,2.4 -3.9,2.8 -0.5,0.1 -0.8,0.5 -0.7,1 0.1,0.4 0.4,0.7 0.8,0.7 0.1,0 0.1,0 0.2,0 3.6,-0.6 4.8,-2.5 5.3,-4 z" /><path
       inkscape:connector-curvature="0"
       id="path68"
       d="m 262,313.6 c -0.4,0.1 -0.6,0.5 -0.5,0.8 0,0 0.8,2.9 0.4,4.9 -0.1,0.4 0.2,0.7 0.6,0.8 0,0 0.1,0 0.1,0 0.3,0 0.6,-0.2 0.7,-0.6 0.4,-2.3 -0.4,-5.3 -0.5,-5.4 -0.1,-0.4 -0.5,-0.6 -0.8,-0.5 z" /><path
       inkscape:connector-curvature="0"
       id="path70"
       d="m 258.6,314.8 c -0.4,0.1 -0.5,0.5 -0.4,0.9 0.3,0.8 0.7,2.2 0.5,2.9 -0.1,0.4 0.2,0.7 0.5,0.8 0,0 0.1,0 0.1,0 0.3,0 0.6,-0.2 0.7,-0.5 0.3,-1.3 -0.5,-3.4 -0.6,-3.7 -0.1,-0.4 -0.5,-0.6 -0.8,-0.4 z" /></g></svg>