<?xml version="1.0" encoding="utf-8"?>
<!-- Generator: Adobe Illustrator 18.1.1, SVG Export Plug-In . SVG Version: 6.00 Build 0)  -->
<svg version="1.1" id="Calque_1" xmlns="http://www.w3.org/2000/svg" xmlns:xlink="http://www.w3.org/1999/xlink" x="0px" y="0px"
	 viewBox="0 0 1190.6 841.9" enable-background="new 0 0 1190.6 841.9" xml:space="preserve">
<g>
	<g>
		<path d="M289.1,359h30.6c9.1,0,16.1,2.2,21,6.7c4.9,4.5,7.3,10.9,7.3,19.2c0,8.3-2.4,14.8-7.3,19.3c-4.9,4.5-11.9,6.7-21,6.7
			h-12.2v27.6h-18.5V359z M307.6,373.9v22.2h10.2c3.6,0,6.4-1,8.3-2.9c2-1.9,2.9-4.7,2.9-8.2s-1-6.3-2.9-8.2c-2-1.9-4.7-2.9-8.3-2.9
			H307.6z"/>
		<path d="M383.7,377.5c9.3,0,16.5,2.8,21.7,8.3c5.2,5.5,7.8,13.2,7.8,23c0,9.8-2.6,17.5-7.8,23c-5.2,5.5-12.4,8.3-21.7,8.3
			c-9.2,0-16.5-2.8-21.7-8.3c-5.2-5.5-7.9-13.2-7.9-23c0-9.8,2.6-17.5,7.9-23C367.2,380.2,374.5,377.5,383.7,377.5z M383.7,391.1
			c-3.8,0-6.7,1.5-8.7,4.6c-2,3-3,7.4-3,13.1s1,10.1,3,13.1c2,3,4.9,4.6,8.7,4.6c3.8,0,6.6-1.5,8.6-4.6c2-3,3-7.4,3-13.1
			s-1-10.1-3-13.1C390.3,392.6,387.5,391.1,383.7,391.1z"/>
		<path d="M465.4,380.8v14.5c-3.7-1.7-7.2-3-10.6-3.8c-3.4-0.9-6.7-1.3-9.7-1.3c-3.3,0-5.7,0.5-7.3,1.4c-1.6,0.9-2.4,2.3-2.4,4.2
			c0,1.5,0.6,2.7,1.8,3.5c1.2,0.8,3.3,1.4,6.5,1.8l3,0.5c8.8,1.2,14.7,3.3,17.8,6.1c3,2.8,4.6,7.3,4.6,13.4c0,6.4-2.1,11.1-6.3,14.3
			c-4.2,3.2-10.5,4.8-18.9,4.8c-3.6,0-7.2-0.3-11-0.9c-3.8-0.6-7.7-1.6-11.6-2.8v-14.5c3.4,1.8,6.9,3.2,10.5,4.2
			c3.6,0.9,7.3,1.4,11,1.4c3.3,0,5.9-0.5,7.6-1.5c1.7-1,2.6-2.6,2.6-4.6c0-1.7-0.6-3-1.8-3.8c-1.2-0.8-3.5-1.5-7-1.9l-3-0.4
			c-7.6-1.1-13-3-16.1-5.9c-3.1-2.9-4.6-7.2-4.6-13.1c0-6.3,2-11,5.9-14.1c3.9-3.1,9.9-4.6,18-4.6c3.2,0,6.5,0.3,10,0.8
			C457.5,378.8,461.3,379.6,465.4,380.8z"/>
		<path d="M498.5,362v16.9h17.7v13.6h-17.7v25.3c0,2.8,0.5,4.6,1.5,5.6c1,1,2.9,1.5,5.9,1.5h8.8v13.6H500c-6.8,0-11.6-1.6-14.4-4.7
			c-2.8-3.1-4.3-8.5-4.3-16v-25.3h-8.5v-13.6h8.5V362H498.5z"/>
		<path d="M561.1,428.5c-2.4,3.5-5,6-7.8,7.7c-2.8,1.6-6.1,2.5-9.9,2.5c-6.5,0-11.9-2.9-16.2-8.6c-4.3-5.7-6.4-13-6.4-21.9
			c0-8.9,2.1-16.2,6.4-21.9c4.3-5.7,9.7-8.6,16.2-8.6c3.8,0,7.1,0.8,9.9,2.5c2.8,1.6,5.5,4.2,7.8,7.7v-8.8h17.3v53.7
			c0,9.6-2.7,16.9-8.2,22c-5.5,5.1-13.4,7.6-23.7,7.6c-3.3,0-6.6-0.3-9.7-0.9c-3.1-0.6-6.3-1.4-9.5-2.6v-14.9c3,1.9,6,3.3,8.8,4.3
			c2.9,0.9,5.8,1.4,8.7,1.4c5.6,0,9.7-1.4,12.4-4.1c2.6-2.7,3.9-7,3.9-12.8V428.5z M549.7,391.3c-3.6,0-6.3,1.5-8.3,4.4
			c-2,2.9-3,7-3,12.4c0,5.5,1,9.6,2.9,12.4c1.9,2.8,4.7,4.2,8.4,4.2c3.6,0,6.4-1.5,8.4-4.4c2-2.9,3-7,3-12.3c0-5.3-1-9.5-3-12.4
			C556.1,392.8,553.3,391.3,549.7,391.3z"/>
		<path d="M632.5,395.2c-1.5-0.8-3-1.4-4.5-1.7c-1.5-0.4-3-0.6-4.5-0.6c-4.4,0-7.8,1.6-10.2,4.7s-3.6,7.6-3.6,13.5v27.5h-17.2v-59.7
			h17.2v9.8c2.2-3.9,4.7-6.8,7.6-8.6s6.3-2.7,10.3-2.7c0.6,0,1.2,0,1.9,0.1c0.7,0.1,1.7,0.2,2.9,0.3L632.5,395.2z"/>
		<path d="M692.5,408.6v5.4h-40.1c0.4,4.5,1.8,7.8,4.3,10.1s6,3.4,10.5,3.4c3.6,0,7.3-0.6,11.1-1.8s7.7-3,11.6-5.4V435
			c-4.1,1.7-8.1,3-12.2,3.9c-4.1,0.9-8.1,1.3-12.2,1.3c-9.7,0-17.3-2.7-22.7-8.2c-5.4-5.5-8.1-13.2-8.1-23.1c0-9.7,2.6-17.4,7.9-23
			c5.3-5.6,12.6-8.4,21.9-8.4c8.5,0,15.2,2.8,20.3,8.5C690,391.6,692.5,399.1,692.5,408.6z M674.9,402.3c0-3.6-1-6.5-2.9-8.8
			c-1.9-2.2-4.4-3.3-7.5-3.3c-3.3,0-6,1-8.1,3.1c-2.1,2.1-3.4,5.1-3.9,9H674.9z"/>
		<path d="M753.9,361.5v16.8c-3.9-2-7.7-3.4-11.5-4.4c-3.7-1-7.3-1.5-10.6-1.5c-4.4,0-7.7,0.7-9.8,2c-2.1,1.4-3.2,3.4-3.2,6.3
			c0,2.1,0.7,3.8,2.1,5c1.4,1.2,4,2.2,7.8,3.1l7.8,1.8c8,1.8,13.7,4.5,17,8.1c3.3,3.6,5,8.8,5,15.5c0,8.8-2.3,15.3-7,19.6
			c-4.7,4.3-11.8,6.4-21.5,6.4c-4.5,0-9.1-0.5-13.7-1.4c-4.6-1-9.1-2.4-13.7-4.3v-17.3c4.6,2.7,9,4.7,13.3,6.1
			c4.3,1.4,8.4,2.1,12.4,2.1c4,0,7.1-0.7,9.2-2.2c2.1-1.5,3.2-3.6,3.2-6.4c0-2.5-0.7-4.4-2.2-5.8c-1.5-1.3-4.4-2.6-8.7-3.6l-7.1-1.8
			c-7.1-1.7-12.4-4.4-15.7-8.2c-3.3-3.7-5-8.8-5-15.1c0-7.9,2.3-14,6.9-18.3c4.6-4.3,11.2-6.4,19.8-6.4c3.9,0,8,0.3,12.2,1
			C745.2,359.2,749.5,360.2,753.9,361.5z"/>
		<path d="M807.3,440h-1.4c-11.8,0-21-3.6-27.5-10.9s-9.8-17.3-9.8-30.3c0-12.9,3.3-23,9.8-30.3c6.5-7.3,15.5-11,27-11
			c11.6,0,20.7,3.6,27.1,10.9c6.5,7.2,9.7,17.4,9.7,30.4c0,9-1.7,16.7-5.1,23.1c-3.4,6.5-8.4,11.3-14.8,14.6l14.4,17.9H819
			L807.3,440z M805.3,372.5c-5.6,0-10,2.3-13.1,6.9c-3.1,4.6-4.7,11.1-4.7,19.5c0,8.5,1.5,15.1,4.6,19.6s7.4,6.8,13.2,6.8
			c5.6,0,10-2.3,13.1-6.9c3.1-4.6,4.7-11.1,4.7-19.5c0-8.4-1.6-14.9-4.7-19.5C815.4,374.8,811,372.5,805.3,372.5z"/>
		<path d="M853.9,359h18.5v64.1h32.4v15.5h-50.9V359z"/>
		<path d="M371.2,529.3h-28.9l-4.6,14.5h-18.5l26.5-79.6h22l26.5,79.6h-18.6L371.2,529.3z M346.9,514.5h19.6l-9.8-31.7L346.9,514.5z
			"/>
		<path d="M400.2,520.6v-36.5h17.3v6c0,3.2,0,7.3-0.1,12.2c0,4.9-0.1,8.1-0.1,9.8c0,4.8,0.1,8.3,0.3,10.4c0.2,2.1,0.6,3.7,1.1,4.6
			c0.7,1.2,1.6,2.2,2.8,2.9c1.1,0.7,2.4,1,3.9,1c3.6,0,6.4-1.5,8.4-4.6c2-3.1,3.1-7.3,3.1-12.7v-29.5h17.2v59.7H437v-8.6
			c-2.6,3.5-5.3,6-8.2,7.7c-2.9,1.7-6.1,2.5-9.6,2.5c-6.2,0-10.9-2.1-14.1-6.3C401.8,534.8,400.2,528.6,400.2,520.6z"/>
		<path d="M487.3,467.2v16.9h17.7v13.6h-17.7v25.3c0,2.8,0.5,4.6,1.5,5.6c1,1,2.9,1.5,5.9,1.5h8.8v13.6h-14.7
			c-6.8,0-11.6-1.6-14.4-4.7c-2.8-3.1-4.3-8.5-4.3-16v-25.3h-8.5v-13.6h8.5v-16.9H487.3z"/>
		<path d="M538.8,482.7c9.3,0,16.5,2.8,21.7,8.3c5.2,5.5,7.8,13.2,7.8,23c0,9.8-2.6,17.5-7.8,23c-5.2,5.5-12.4,8.3-21.7,8.3
			c-9.2,0-16.5-2.8-21.7-8.3c-5.2-5.5-7.9-13.2-7.9-23c0-9.8,2.6-17.5,7.9-23C522.3,485.4,529.6,482.7,538.8,482.7z M538.8,496.3
			c-3.8,0-6.7,1.5-8.7,4.6c-2,3-3,7.4-3,13.1c0,5.7,1,10.1,3,13.1c2,3,4.9,4.6,8.7,4.6c3.8,0,6.6-1.5,8.6-4.6c2-3,3-7.4,3-13.1
			c0-5.7-1-10.1-3-13.1C545.4,497.8,542.6,496.3,538.8,496.3z"/>
		<path d="M628.3,494c2.2-3.7,4.7-6.5,7.7-8.4c3-1.9,6.3-2.9,9.9-2.9c6.2,0,10.9,2.1,14.1,6.3c3.2,4.2,4.8,10.4,4.8,18.4v36.3h-17.3
			v-31.1c0-0.5,0.1-0.9,0.1-1.4c0-0.5,0-1.2,0-2.1c0-4.2-0.6-7.3-1.7-9.2s-2.9-2.9-5.5-2.9c-3.2,0-5.7,1.5-7.5,4.5
			c-1.8,3-2.7,7.3-2.8,13v29.3H613v-31.1c0-6.6-0.5-10.9-1.5-12.8s-2.9-2.9-5.5-2.9c-3.3,0-5.8,1.5-7.6,4.5c-1.8,3-2.7,7.3-2.7,12.9
			v29.4h-17.3v-59.7h17.3v8.7c2.1-3.4,4.5-5.9,7.2-7.6c2.7-1.7,5.8-2.6,9.1-2.6c3.7,0,7,1,9.8,3C624.7,487.7,626.9,490.4,628.3,494z
			"/>
		<path d="M729,509.8v34.1h-17.3V535c-2.3,3.6-4.9,6.3-7.8,7.9s-6.4,2.5-10.5,2.5c-5.6,0-10.1-1.8-13.6-5.4c-3.5-3.6-5.2-8.3-5.2-14
			c0-7,2.2-12.1,6.5-15.4c4.3-3.3,11.1-4.9,20.4-4.9h10.1v-1.5c0-3-1.1-5.2-3.2-6.6c-2.2-1.4-5.5-2.1-10-2.1
			c-3.7,0-7.1,0.4-10.3,1.2s-6.1,2-8.8,3.7v-14.5c3.7-1,7.4-1.7,11.1-2.3c3.7-0.5,7.4-0.8,11.1-0.8c9.7,0,16.7,2.1,21,6.4
			C726.9,493.3,729,500.2,729,509.8z M702.8,516.9c-3.6,0-6.3,0.7-8.1,2c-1.8,1.4-2.7,3.3-2.7,6c0,2.4,0.7,4.3,2.2,5.7
			c1.5,1.4,3.5,2.1,6.1,2.1c3.2,0,6-1.3,8.2-3.9c2.2-2.6,3.3-5.8,3.3-9.7v-2.2H702.8z"/>
		<path d="M761.5,467.2v16.9h17.7v13.6h-17.7v25.3c0,2.8,0.5,4.6,1.5,5.6c1,1,2.9,1.5,5.9,1.5h8.8v13.6H763
			c-6.8,0-11.6-1.6-14.4-4.7c-2.8-3.1-4.3-8.5-4.3-16v-25.3h-8.5v-13.6h8.5v-16.9H761.5z"/>
		<path d="M787.5,460.9h17.2v15.6h-17.2V460.9z M787.5,484.1h17.2v59.7h-17.2V484.1z"/>
		<path d="M862.4,486v15.6c-2.3-1.8-4.6-3.1-7-3.9c-2.4-0.9-4.8-1.3-7.3-1.3c-4.8,0-8.5,1.6-11.2,4.7c-2.7,3.1-4,7.5-4,13
			c0,5.6,1.3,9.9,4,13c2.7,3.1,6.4,4.7,11.2,4.7c2.7,0,5.3-0.4,7.7-1.3c2.4-0.9,4.6-2.2,6.7-3.9V542c-2.7,1.1-5.4,1.9-8.2,2.5
			c-2.8,0.5-5.5,0.8-8.3,0.8c-9.7,0-17.3-2.8-22.8-8.3c-5.5-5.5-8.2-13.2-8.2-23c0-9.8,2.7-17.5,8.2-23.1c5.5-5.5,13.1-8.3,22.8-8.3
			c2.8,0,5.6,0.3,8.3,0.8C856.9,484.1,859.7,484.9,862.4,486z"/>
		<path d="M386.9,569.4h49.8V585h-31.3v14.8h29.5v15.5h-29.5V649h-18.5V569.4z"/>
		<path d="M501.3,615V649H484v-8.8c-2.3,3.6-4.9,6.3-7.8,7.9s-6.4,2.5-10.5,2.5c-5.6,0-10.1-1.8-13.6-5.4c-3.5-3.6-5.2-8.3-5.2-14
			c0-7,2.2-12.1,6.5-15.4c4.3-3.3,11.1-4.9,20.4-4.9H484v-1.5c0-3-1.1-5.2-3.2-6.6c-2.1-1.4-5.5-2.1-10-2.1c-3.7,0-7.1,0.4-10.3,1.2
			c-3.2,0.8-6.1,2-8.8,3.7v-14.5c3.7-1,7.4-1.7,11.1-2.3c3.7-0.5,7.4-0.8,11.1-0.8c9.7,0,16.7,2.1,21,6.4
			C499.2,598.5,501.3,605.4,501.3,615z M475.1,622.2c-3.6,0-6.3,0.7-8.1,2c-1.8,1.4-2.7,3.3-2.7,6c0,2.4,0.7,4.3,2.2,5.7
			c1.5,1.4,3.5,2.1,6.1,2.1c3.2,0,6-1.3,8.2-3.9c2.2-2.6,3.3-5.8,3.3-9.7v-2.2H475.1z"/>
		<path d="M515.1,566.1h17.2v15.6h-17.2V566.1z M515.1,589.3h17.2V649h-17.2V589.3z"/>
		<path d="M546.5,566.1h17.2V649h-17.2V566.1z"/>
		<path d="M603.5,587.9c9.3,0,16.5,2.8,21.7,8.3c5.2,5.5,7.8,13.2,7.8,23c0,9.8-2.6,17.5-7.8,23s-12.4,8.3-21.7,8.3
			c-9.2,0-16.5-2.8-21.7-8.3c-5.2-5.5-7.9-13.2-7.9-23c0-9.8,2.6-17.5,7.9-23C587,590.7,594.3,587.9,603.5,587.9z M603.5,601.5
			c-3.8,0-6.7,1.5-8.7,4.6c-2,3-3,7.4-3,13.1s1,10.1,3,13.1c2,3,4.9,4.6,8.7,4.6c3.8,0,6.6-1.5,8.6-4.6c2-3,3-7.4,3-13.1
			s-1-10.1-3-13.1C610.2,603,607.3,601.5,603.5,601.5z"/>
		<path d="M636.5,589.3h17.2l13.4,41.3l13.3-41.3h17.2L676.5,649h-18.9L636.5,589.3z"/>
		<path d="M758.7,619v5.4h-40.1c0.4,4.5,1.8,7.8,4.3,10.1s6,3.4,10.5,3.4c3.6,0,7.3-0.6,11.1-1.8s7.7-3,11.6-5.4v14.7
			c-4.1,1.7-8.1,3-12.2,3.9c-4.1,0.9-8.1,1.3-12.2,1.3c-9.7,0-17.3-2.7-22.7-8.2c-5.4-5.5-8.1-13.2-8.1-23.1c0-9.7,2.6-17.4,7.9-23
			c5.3-5.6,12.6-8.4,21.9-8.4c8.5,0,15.2,2.8,20.3,8.5C756.2,602,758.7,609.6,758.7,619z M741.1,612.7c0-3.6-1-6.5-2.9-8.8
			c-1.9-2.2-4.4-3.3-7.5-3.3c-3.3,0-6,1-8.1,3.1c-2.1,2.1-3.4,5.1-3.9,9H741.1z"/>
		<path d="M809.5,605.6c-1.5-0.8-3-1.4-4.5-1.7c-1.5-0.4-3-0.6-4.5-0.6c-4.4,0-7.8,1.6-10.2,4.7c-2.4,3.1-3.6,7.6-3.6,13.5V649
			h-17.2v-59.7h17.2v9.8c2.2-3.9,4.7-6.8,7.6-8.6c2.9-1.8,6.3-2.7,10.3-2.7c0.6,0,1.2,0,1.9,0.1c0.7,0.1,1.7,0.2,2.9,0.3
			L809.5,605.6z"/>
	</g>
	<g>
		<path d="M650.5,221.8l-48.6-28.1c-5.5-3.2-12.7-3.2-18.3,0L535,221.8c-5.6,3.3-9.1,9.3-9.1,15.8v56.1c0,6.5,3.5,12.6,9.1,15.8
			l48.6,28.1c2.8,1.6,5.9,2.4,9.1,2.4s6.4-0.8,9.1-2.4l48.6-28.1c5.6-3.3,9.1-9.3,9.1-15.8v-56.1
			C659.6,231.1,656.1,225.1,650.5,221.8z M650.1,293.8c0,3.1-1.7,6-4.4,7.6l-48.6,28.1c-2.7,1.5-6.1,1.5-8.8,0l-2.2-1.2
			c0.6-1.7,1.2-3.4,1.7-5.1c3.2-12.7-0.3-21.9-1.4-24.3c0.4-3.9,0.6-5.2,0.7-5.7c1.9-10,3.3-13.4,3.8-14.4c2.1-0.4,4.6-0.5,7.7-0.1
			c1.1,0.1,2.1-0.7,2.3-1.8c0.1-1.1-0.7-2.1-1.8-2.3c-3.9-0.5-7.1-0.3-9.9,0.4c-0.2,0-0.3,0.1-0.5,0.2c-0.7,0.4-2.6,1.3-5.7,17.3
			c-0.1,0.5-0.3,1.7-0.8,6.6c0,0.4,0,0.8,0.2,1.2c0,0.1,4.6,9.1,1.4,22c-0.4,1.4-0.8,2.7-1.3,4l-42.9-24.7c-2.7-1.6-4.4-4.5-4.4-7.6
			v-2.9c3.4-3.1,6-5.5,7.7-6.9l2.1-1.9c3.3-2.9,6.1-5.5,8.2-13.1l7.8-29.8c0.7,0.7,1.6,1.6,2.5,2.6l1.5,16.2l7.1-7.2
			c0.1,0.1,0.2,0.2,0.2,0.2c0.4,0.4,0.9,0.6,1.5,0.6c0.5,0,1-0.2,1.4-0.6c0.8-0.8,0.8-2.1,0-2.9c-4.3-4.4-12.6-13-13.3-13.8
			c-0.4-0.5-0.5-0.9-0.5-1.1c0-0.1,0.1-0.2,0.2-0.3c1-0.4,3.2-0.3,5.3-0.2c2.4,0.1,5.1,0.3,7.6-0.3c2.4-0.5,4.8-1.6,7-2.5
			c2-0.9,4-1.7,5.2-1.8c0.1,0,0.1,0,0.2,0l-4.6,18.9c-0.3,1.1,0.4,2.2,1.5,2.5c1.1,0.3,2.2-0.4,2.5-1.5l3.8-15.3l13.3,3.6
			c1.5,0.4,3.3,1.4,3.6,2c0.7,1.9,2.3,6.3,2.3,6.3c0.1,0.4,1.4,4,4.7,5c6.8,1.9,14.2,4.4,18.9,6.4c-0.4,0.9-0.8,1.8-1,2.6
			c-0.5,2.6,1.7,5.2,2.6,6.4c0.1,0.1,0.3,0.3,0.4,0.4c-0.6,1.1-1.3,2.3-2.1,3.6c-1.8,3.1-4.4,7.7-5.5,8.5c-1.8,1.4-3.7,1.8-4.2,1.9
			c-1,0-2-0.1-3.1-0.3c-1.1-0.2-2.2,0.6-2.3,1.8c-0.2,1.1,0.6,2.2,1.8,2.3c1.3,0.2,2.5,0.3,3.7,0.3c0,0,0,0,0.1,0c0.1,0,0.2,0,0.3,0
			c0.1,0,3.2-0.4,6.3-2.7c1.7-1.3,3.6-4.5,6.6-9.8c0.8-1.3,1.6-2.8,2.3-4c1.5-1,4.8-5.5,5.5-6.4c0.9-1,1-3.3,0-4.3
			c-0.7-0.7-5-2.2-7.2-2.9c-6.6-3.4-19-7-22-7.8c-0.9-0.3-1.7-1.7-2-2.4c0,0-1.6-4.4-2.3-6.3c-1.1-3-5.5-4.4-6.4-4.6l-13.4-3.6
			l0.1-0.2c0.1-0.3,0.4-1.8-0.7-3.1c-0.6-0.7-1.7-1.5-3.9-1.3c-1.9,0.1-4,1-6.5,2.1c-2.1,0.9-4.2,1.8-6.2,2.2
			c-1.9,0.4-4.3,0.3-6.5,0.2c-2.7-0.1-5.3-0.3-7.2,0.6c-1.3,0.6-2.3,1.8-2.6,3.2c-0.2,0.9-0.1,1.9,0.3,2.8l-8.6,32.8
			c-1.8,6.4-3.8,8.3-7,11.1l-2.1,1.9c-1.1,1-2.8,2.5-4.9,4.4v-47.7c0-3.1,1.7-6,4.4-7.6l48.6-28.1c1.3-0.8,2.8-1.2,4.4-1.2
			s3.1,0.4,4.4,1.2l48.6,28.1c2.7,1.6,4.4,4.5,4.4,7.6V293.8z"/>
		<path d="M602.1,246.8c2.7,0.2,4.8,1.2,4.8,1.2s-2.8-2.4-2.9-2.3c0.7-2.6-0.9-5.1-0.9-5.1c-3.7,1.5-7.7,3.6-11.2,6.9
			C591.8,247.4,599.4,246.6,602.1,246.8z"/>
		<path d="M616.8,275.9c-0.5-0.1-0.9,0.2-1,0.7c-0.7,3.9-4,7.7-8.4,9.7c-0.4,0.2-0.6,0.7-0.4,1.1c0.1,0.3,0.5,0.5,0.8,0.5
			c0.1,0,0.2,0,0.4-0.1c4.9-2.2,8.6-6.6,9.4-11C617.6,276.4,617.3,275.9,616.8,275.9z"/>
		<path d="M611.6,277.4c0.1-0.5-0.2-0.9-0.6-1c-0.5-0.1-0.9,0.2-1,0.6c-0.7,3-3.2,5.1-7.2,6.4c-0.5,0.1-0.7,0.6-0.6,1.1
			c0.1,0.4,0.5,0.6,0.8,0.6c0.1,0,0.2,0,0.3,0C607.8,283.5,610.7,280.9,611.6,277.4z"/>
		<path d="M605.1,277.3c0.1-0.5-0.1-0.9-0.6-1.1c-0.5-0.1-0.9,0.1-1.1,0.6c-0.5,1.5-1.8,2.5-4,2.9c-0.5,0.1-0.8,0.5-0.7,1
			c0.1,0.4,0.4,0.7,0.8,0.7c0.1,0,0.1,0,0.2,0C603.3,280.7,604.6,278.8,605.1,277.3z"/>
		<path d="M580.6,245.3c-0.4,0.1-0.6,0.5-0.5,0.9c0,0,0.8,2.9,0.5,4.9c-0.1,0.4,0.2,0.7,0.6,0.8c0,0,0.1,0,0.1,0
			c0.3,0,0.6-0.2,0.7-0.6c0.4-2.3-0.4-5.4-0.5-5.5C581.3,245.4,580.9,245.2,580.6,245.3z"/>
		<path d="M577.2,246.5c-0.4,0.1-0.5,0.5-0.4,0.9c0.3,0.8,0.7,2.3,0.5,3c-0.1,0.4,0.2,0.7,0.5,0.8c0,0,0.1,0,0.1,0
			c0.3,0,0.6-0.2,0.7-0.6c0.3-1.3-0.5-3.5-0.6-3.7C577.9,246.5,577.5,246.3,577.2,246.5z"/>
	</g>
</g>
</svg>
