<?xml version="1.0" encoding="utf-8"?>
<!-- Generator: Adobe Illustrator 18.1.1, SVG Export Plug-In . SVG Version: 6.00 Build 0)  -->
<svg version="1.1" id="Calque_1" xmlns="http://www.w3.org/2000/svg" xmlns:xlink="http://www.w3.org/1999/xlink" x="0px" y="0px"
	 viewBox="0 0 1190.6 841.9" enable-background="new 0 0 1190.6 841.9" xml:space="preserve">
<g>
	<g>
		<path d="M376.1,294.5h30.2c9,0,15.9,2.2,20.7,6.6c4.8,4.4,7.2,10.7,7.2,18.9c0,8.2-2.4,14.5-7.2,19c-4.8,4.4-11.7,6.6-20.7,6.6
			h-12v27.2h-18.2V294.5z M394.3,309.1V331h10c3.5,0,6.3-1,8.2-2.9c1.9-1.9,2.9-4.6,2.9-8.1c0-3.5-1-6.2-2.9-8.1
			c-1.9-1.9-4.7-2.8-8.2-2.8H394.3z"/>
		<path d="M469.1,312.6c9.1,0,16.2,2.7,21.3,8.2c5.1,5.5,7.7,13,7.7,22.7s-2.6,17.2-7.7,22.7c-5.1,5.5-12.2,8.2-21.3,8.2
			c-9.1,0-16.2-2.7-21.4-8.2c-5.2-5.5-7.7-13-7.7-22.7s2.6-17.2,7.7-22.7C452.9,315.4,460.1,312.6,469.1,312.6z M469.1,326.1
			c-3.7,0-6.6,1.5-8.6,4.5c-2,3-2.9,7.3-2.9,12.9c0,5.6,1,9.9,2.9,12.9c2,3,4.8,4.5,8.6,4.5c3.7,0,6.5-1.5,8.5-4.5
			c1.9-3,2.9-7.3,2.9-12.9c0-5.6-1-9.9-2.9-12.9C475.7,327.6,472.9,326.1,469.1,326.1z"/>
		<path d="M549.6,315.9v14.3c-3.6-1.7-7.1-2.9-10.5-3.8c-3.4-0.8-6.5-1.3-9.5-1.3c-3.2,0-5.6,0.4-7.2,1.3c-1.6,0.9-2.3,2.3-2.3,4.1
			c0,1.5,0.6,2.7,1.8,3.5c1.2,0.8,3.3,1.4,6.4,1.8l2.9,0.5c8.7,1.2,14.5,3.2,17.5,6s4.5,7.2,4.5,13.2c0,6.3-2.1,11-6.2,14.1
			c-4.2,3.1-10.4,4.7-18.6,4.7c-3.5,0-7.1-0.3-10.8-0.9s-7.5-1.5-11.5-2.8v-14.3c3.4,1.8,6.8,3.2,10.4,4.1c3.5,0.9,7.1,1.4,10.8,1.4
			c3.3,0,5.8-0.5,7.4-1.5c1.7-1,2.5-2.5,2.5-4.5c0-1.7-0.6-2.9-1.7-3.8c-1.2-0.8-3.4-1.5-6.9-1.9l-3-0.4c-7.5-1-12.8-3-15.8-5.8
			c-3-2.8-4.5-7.1-4.5-12.9c0-6.2,1.9-10.8,5.8-13.8c3.8-3,9.7-4.5,17.7-4.5c3.1,0,6.4,0.3,9.8,0.8
			C541.8,313.9,545.5,314.8,549.6,315.9z"/>
		<path d="M582.1,297.4v16.7h17.4v13.4h-17.4v24.9c0,2.7,0.5,4.6,1.4,5.5c1,1,2.9,1.4,5.8,1.4h8.7v13.4h-14.5
			c-6.7,0-11.4-1.5-14.2-4.6c-2.8-3.1-4.2-8.3-4.2-15.8v-24.9h-8.4v-13.4h8.4v-16.7H582.1z"/>
		<path d="M643.7,362.8c-2.3,3.4-4.9,5.9-7.7,7.6c-2.8,1.6-6,2.4-9.8,2.4c-6.4,0-11.8-2.8-16-8.5c-4.2-5.6-6.3-12.8-6.3-21.6
			c0-8.8,2.1-16,6.3-21.6c4.2-5.6,9.5-8.4,16-8.4c3.7,0,7,0.8,9.8,2.4c2.8,1.6,5.4,4.1,7.7,7.6v-8.7h17v52.8
			c0,9.4-2.7,16.7-8.1,21.6s-13.2,7.5-23.4,7.5c-3.3,0-6.5-0.3-9.6-0.8c-3.1-0.6-6.2-1.4-9.3-2.6v-14.6c3,1.9,5.9,3.3,8.7,4.2
			c2.8,0.9,5.7,1.4,8.5,1.4c5.5,0,9.6-1.3,12.2-4c2.6-2.7,3.9-6.9,3.9-12.6V362.8z M632.5,326.3c-3.5,0-6.2,1.4-8.2,4.3
			c-1.9,2.9-2.9,6.9-2.9,12.2c0,5.4,0.9,9.5,2.8,12.2c1.9,2.8,4.6,4.2,8.2,4.2c3.5,0,6.3-1.4,8.2-4.3c2-2.9,2.9-6.9,2.9-12.1
			c0-5.2-1-9.3-2.9-12.2C638.8,327.7,636.1,326.3,632.5,326.3z"/>
		<path d="M714.1,330c-1.5-0.8-3-1.3-4.4-1.7s-2.9-0.6-4.4-0.6c-4.3,0-7.7,1.5-10,4.6c-2.3,3.1-3.5,7.5-3.5,13.3v27.1h-16.9v-58.7
			h16.9v9.7c2.2-3.8,4.7-6.7,7.5-8.4c2.8-1.8,6.2-2.6,10.1-2.6c0.6,0,1.2,0,1.8,0.1c0.7,0.1,1.6,0.2,2.9,0.3L714.1,330z"/>
		<path d="M773.1,343.3v5.4h-39.5c0.4,4.4,1.8,7.7,4.3,9.9c2.5,2.2,5.9,3.3,10.3,3.3c3.6,0,7.2-0.6,10.9-1.8
			c3.7-1.2,7.5-2.9,11.5-5.3v14.5c-4,1.7-8,2.9-12,3.8s-8,1.3-12,1.3c-9.6,0-17-2.7-22.3-8.1c-5.3-5.4-7.9-13-7.9-22.7
			c0-9.6,2.6-17.1,7.8-22.6c5.2-5.5,12.4-8.2,21.5-8.2c8.3,0,15,2.8,20,8.3C770.6,326.5,773.1,334,773.1,343.3z M755.7,337
			c0-3.6-0.9-6.4-2.8-8.6c-1.9-2.2-4.3-3.3-7.4-3.3c-3.3,0-5.9,1-7.9,3.1c-2,2-3.3,5-3.9,8.8H755.7z"/>
		<path d="M833.5,297v16.6c-3.8-1.9-7.6-3.4-11.3-4.4c-3.7-1-7.2-1.5-10.5-1.5c-4.3,0-7.5,0.7-9.6,2c-2.1,1.3-3.1,3.4-3.1,6.2
			c0,2.1,0.7,3.7,2.1,4.9c1.4,1.2,4,2.2,7.7,3l7.7,1.7c7.9,1.7,13.4,4.4,16.7,8s4.9,8.6,4.9,15.2c0,8.6-2.3,15.1-6.9,19.3
			c-4.6,4.2-11.6,6.3-21.1,6.3c-4.5,0-9-0.5-13.5-1.4c-4.5-0.9-9-2.3-13.5-4.2v-17c4.5,2.7,8.9,4.7,13.1,6c4.2,1.3,8.3,2,12.2,2
			c4,0,7-0.7,9.1-2.2c2.1-1.5,3.2-3.6,3.2-6.3c0-2.4-0.7-4.3-2.2-5.7c-1.4-1.3-4.3-2.5-8.6-3.6l-7-1.7c-7-1.7-12.2-4.4-15.4-8
			s-4.9-8.6-4.9-14.8c0-7.8,2.3-13.8,6.8-18c4.5-4.2,11-6.3,19.5-6.3c3.9,0,7.9,0.3,12,1C824.9,294.7,829.1,295.7,833.5,297z"/>
		<path d="M886.1,374.2h-1.4c-11.6,0-20.6-3.6-27.1-10.7c-6.5-7.1-9.7-17.1-9.7-29.8c0-12.7,3.2-22.6,9.7-29.8
			c6.4-7.2,15.3-10.8,26.6-10.8c11.4,0,20.3,3.6,26.7,10.7c6.4,7.1,9.5,17.1,9.5,30c0,8.8-1.7,16.4-5.1,22.8
			c-3.4,6.4-8.2,11.2-14.6,14.4l14.2,17.6h-17.3L886.1,374.2z M884.1,307.7c-5.5,0-9.8,2.3-12.9,6.8c-3.1,4.5-4.6,10.9-4.6,19.2
			c0,8.4,1.5,14.8,4.5,19.3c3,4.5,7.3,6.7,13,6.7c5.6,0,9.9-2.3,12.9-6.8c3.1-4.5,4.6-10.9,4.6-19.1c0-8.3-1.5-14.7-4.6-19.2
			C894,310,889.7,307.7,884.1,307.7z"/>
		<path d="M931.9,294.5h18.2v63H982v15.3h-50.1V294.5z"/>
		<path d="M418.9,462.1h-28.4l-4.5,14.3h-18.3l26.1-78.3h21.7l26.1,78.3h-18.3L418.9,462.1z M395,447.5h19.3l-9.6-31.2L395,447.5z"
			/>
		<path d="M447.4,453.5v-35.9h17v5.9c0,3.2,0,7.2-0.1,12c0,4.8-0.1,8-0.1,9.6c0,4.7,0.1,8.1,0.3,10.2c0.2,2.1,0.6,3.6,1.1,4.5
			c0.7,1.2,1.6,2.2,2.7,2.8c1.1,0.7,2.4,1,3.8,1c3.5,0,6.3-1.5,8.3-4.5c2-3,3-7.2,3-12.5v-29h16.9v58.7h-16.9v-8.5
			c-2.6,3.4-5.3,6-8.1,7.6c-2.9,1.6-6,2.4-9.4,2.4c-6.1,0-10.7-2.1-13.9-6.2C449,467.5,447.4,461.4,447.4,453.5z"/>
		<path d="M533.1,400.9v16.7h17.4V431h-17.4v24.9c0,2.7,0.5,4.6,1.4,5.5c1,1,2.9,1.4,5.8,1.4h8.7v13.4h-14.5
			c-6.7,0-11.4-1.5-14.2-4.6c-2.8-3.1-4.2-8.3-4.2-15.8V431h-8.4v-13.4h8.4v-16.7H533.1z"/>
		<path d="M583.9,416.2c9.1,0,16.2,2.7,21.3,8.2s7.7,13,7.7,22.7s-2.6,17.2-7.7,22.7c-5.1,5.5-12.2,8.2-21.3,8.2
			c-9.1,0-16.2-2.7-21.4-8.2c-5.2-5.5-7.7-13-7.7-22.7s2.6-17.2,7.7-22.7C567.7,418.9,574.8,416.2,583.9,416.2z M583.9,429.6
			c-3.7,0-6.6,1.5-8.6,4.5c-2,3-2.9,7.3-2.9,12.9c0,5.6,1,9.9,2.9,12.9c2,3,4.8,4.5,8.6,4.5c3.7,0,6.5-1.5,8.5-4.5
			c1.9-3,2.9-7.3,2.9-12.9c0-5.6-1-9.9-2.9-12.9S587.6,429.6,583.9,429.6z"/>
		<path d="M672,427.4c2.1-3.6,4.7-6.4,7.6-8.3c2.9-1.9,6.2-2.9,9.7-2.9c6.1,0,10.7,2.1,13.9,6.2c3.2,4.2,4.8,10.2,4.8,18.1v35.8h-17
			v-30.6c0-0.5,0.1-0.9,0.1-1.4c0-0.5,0-1.2,0-2.1c0-4.2-0.6-7.2-1.7-9c-1.1-1.9-2.9-2.8-5.4-2.8c-3.2,0-5.6,1.5-7.4,4.4
			c-1.7,2.9-2.7,7.2-2.7,12.7v28.8h-17v-30.6c0-6.5-0.5-10.7-1.5-12.6c-1-1.9-2.8-2.8-5.4-2.8c-3.2,0-5.7,1.5-7.5,4.4
			c-1.8,3-2.6,7.2-2.6,12.7v28.9h-17v-58.7h17v8.6c2.1-3.3,4.4-5.8,7.1-7.5c2.7-1.7,5.7-2.5,8.9-2.5c3.6,0,6.9,1,9.7,2.9
			C668.4,421.1,670.6,423.8,672,427.4z"/>
		<path d="M771.1,442.8v33.5h-17v-8.7c-2.3,3.6-4.8,6.2-7.7,7.8s-6.3,2.4-10.3,2.4c-5.5,0-9.9-1.8-13.3-5.3
			c-3.4-3.5-5.1-8.2-5.1-13.8c0-6.9,2.1-11.9,6.4-15.2c4.3-3.2,11-4.8,20.1-4.8h10v-1.5c0-3-1.1-5.1-3.2-6.5
			c-2.1-1.4-5.4-2.1-9.8-2.1c-3.6,0-7,0.4-10.1,1.2c-3.1,0.8-6,2-8.7,3.6v-14.3c3.6-1,7.3-1.7,10.9-2.2s7.3-0.8,10.9-0.8
			c9.5,0,16.4,2.1,20.7,6.3C769,426.6,771.1,433.4,771.1,442.8z M745.3,449.9c-3.5,0-6.2,0.7-8,2c-1.8,1.3-2.7,3.3-2.7,5.9
			c0,2.4,0.7,4.2,2.2,5.6c1.4,1.3,3.4,2,6,2c3.2,0,5.9-1.3,8-3.8c2.2-2.5,3.3-5.7,3.3-9.5v-2.2H745.3z"/>
		<path d="M803.1,400.9v16.7h17.4V431h-17.4v24.9c0,2.7,0.5,4.6,1.4,5.5c1,1,2.9,1.4,5.8,1.4h8.7v13.4h-14.5
			c-6.7,0-11.4-1.5-14.2-4.6s-4.2-8.3-4.2-15.8V431h-8.4v-13.4h8.4v-16.7H803.1z"/>
		<path d="M828.7,394.7h16.9V410h-16.9V394.7z M828.7,417.6h16.9v58.7h-16.9V417.6z"/>
		<path d="M902.3,419.4v15.3c-2.3-1.7-4.6-3-6.9-3.9c-2.3-0.8-4.7-1.3-7.2-1.3c-4.7,0-8.4,1.5-11,4.6c-2.6,3.1-3.9,7.3-3.9,12.8
			c0,5.5,1.3,9.8,3.9,12.8c2.6,3.1,6.3,4.6,11,4.6c2.7,0,5.2-0.4,7.6-1.3c2.4-0.9,4.6-2.2,6.6-3.9v15.4c-2.6,1.1-5.3,1.9-8,2.4
			s-5.5,0.8-8.2,0.8c-9.5,0-17-2.7-22.4-8.2c-5.4-5.4-8.1-13-8.1-22.7c0-9.7,2.7-17.2,8.1-22.7c5.4-5.4,12.9-8.2,22.4-8.2
			c2.8,0,5.5,0.3,8.2,0.8C897,417.5,899.7,418.3,902.3,419.4z"/>
		<path d="M376.1,501.6h49v15.3h-30.8v14.6h29v15.3h-29v33.2h-18.2V501.6z"/>
		<path d="M488.8,546.4v33.5h-17v-8.7c-2.3,3.6-4.8,6.2-7.7,7.8s-6.3,2.4-10.3,2.4c-5.5,0-9.9-1.8-13.3-5.3
			c-3.4-3.5-5.1-8.2-5.1-13.8c0-6.9,2.1-11.9,6.4-15.2c4.3-3.2,11-4.8,20.1-4.8h10v-1.5c0-3-1.1-5.1-3.2-6.5
			c-2.1-1.4-5.4-2.1-9.8-2.1c-3.6,0-7,0.4-10.1,1.2c-3.1,0.8-6,2-8.7,3.6v-14.3c3.6-1,7.3-1.7,10.9-2.2c3.7-0.5,7.3-0.8,10.9-0.8
			c9.5,0,16.4,2.1,20.7,6.3C486.6,530.2,488.8,537,488.8,546.4z M463,553.5c-3.5,0-6.2,0.7-8,2c-1.8,1.3-2.7,3.3-2.7,5.9
			c0,2.4,0.7,4.2,2.2,5.6c1.4,1.3,3.4,2,6,2c3.2,0,5.9-1.3,8-3.8c2.2-2.5,3.3-5.7,3.3-9.5v-2.2H463z"/>
		<path d="M502.3,498.3h16.9v15.3h-16.9V498.3z M502.3,521.1h16.9v58.7h-16.9V521.1z"/>
		<path d="M533.2,498.3h16.9v81.6h-16.9V498.3z"/>
		<path d="M589.3,519.7c9.1,0,16.2,2.7,21.3,8.2c5.1,5.5,7.7,13,7.7,22.7s-2.6,17.2-7.7,22.7c-5.1,5.5-12.2,8.2-21.3,8.2
			c-9.1,0-16.2-2.7-21.4-8.2c-5.2-5.5-7.7-13-7.7-22.7s2.6-17.2,7.7-22.7C573.1,522.5,580.2,519.7,589.3,519.7z M589.3,533.2
			c-3.7,0-6.6,1.5-8.6,4.5c-2,3-2.9,7.3-2.9,12.9c0,5.6,1,9.9,2.9,12.9c2,3,4.8,4.5,8.6,4.5c3.7,0,6.5-1.5,8.5-4.5
			c1.9-3,2.9-7.3,2.9-12.9c0-5.6-1-9.9-2.9-12.9C595.9,534.6,593,533.2,589.3,533.2z"/>
		<path d="M621.8,521.1h16.9l13.2,40.6l13.1-40.6h16.9l-20.8,58.7h-18.6L621.8,521.1z"/>
		<path d="M742.1,550.4v5.4h-39.5c0.4,4.4,1.8,7.7,4.3,9.9c2.5,2.2,5.9,3.3,10.3,3.3c3.6,0,7.2-0.6,10.9-1.8
			c3.7-1.2,7.5-2.9,11.5-5.3v14.5c-4,1.7-8,2.9-12,3.8s-8,1.3-12,1.3c-9.6,0-17-2.7-22.3-8.1c-5.3-5.4-7.9-13-7.9-22.7
			c0-9.6,2.6-17.1,7.8-22.6s12.4-8.2,21.5-8.2c8.3,0,15,2.8,20,8.3C739.6,533.6,742.1,541.1,742.1,550.4z M724.7,544.1
			c0-3.6-0.9-6.4-2.8-8.6s-4.3-3.3-7.4-3.3c-3.3,0-5.9,1-7.9,3.1c-2,2-3.3,5-3.9,8.8H724.7z"/>
		<path d="M792,537.1c-1.5-0.8-3-1.3-4.4-1.7s-2.9-0.6-4.4-0.6c-4.3,0-7.7,1.5-10,4.6c-2.3,3.1-3.5,7.5-3.5,13.3v27.1h-16.9v-58.7
			h16.9v9.7c2.2-3.8,4.7-6.7,7.5-8.4c2.8-1.8,6.2-2.6,10.2-2.6c0.6,0,1.2,0,1.8,0.1c0.7,0.1,1.6,0.2,2.9,0.3L792,537.1z"/>
	</g>
	<g>
		<path d="M330.7,290.5l-47.8-27.6c-5.5-3.2-12.5-3.2-18,0l-47.8,27.6c-5.5,3.2-9,9.2-9,15.6v55.2c0,6.4,3.4,12.4,9,15.6l47.8,27.6
			c2.7,1.6,5.8,2.4,9,2.4c3.2,0,6.3-0.8,9-2.4l47.8-27.6c5.5-3.2,9-9.2,9-15.6V306C339.7,299.6,336.3,293.7,330.7,290.5z
			 M330.4,361.3c0,3.1-1.7,5.9-4.3,7.5l-47.8,27.6c-2.6,1.5-6,1.5-8.6,0l-2.1-1.2c0.6-1.6,1.2-3.3,1.7-5c3.1-12.5-0.3-21.6-1.4-23.9
			c0.4-3.8,0.6-5.1,0.7-5.6c1.9-9.8,3.2-13.2,3.7-14.2c2.1-0.4,4.5-0.5,7.5-0.1c1.1,0.1,2.1-0.7,2.2-1.8c0.1-1.1-0.7-2.1-1.8-2.2
			c-3.9-0.4-7-0.3-9.7,0.4c-0.2,0-0.3,0.1-0.4,0.2c-0.7,0.4-2.5,1.3-5.6,17c-0.1,0.5-0.3,1.7-0.8,6.5c0,0.4,0,0.8,0.2,1.1
			c0,0.1,4.5,9,1.3,21.6c-0.4,1.3-0.8,2.7-1.3,4l-42.2-24.4c-2.7-1.5-4.3-4.4-4.3-7.5v-2.9c3.4-3.1,6-5.4,7.5-6.8l2.1-1.8
			c3.2-2.9,6-5.4,8.1-12.9l7.7-29.3c0.7,0.7,1.5,1.6,2.4,2.5l1.5,15.9l7-7.1c0.1,0.1,0.2,0.2,0.2,0.2c0.4,0.4,0.9,0.6,1.5,0.6
			c0.5,0,1-0.2,1.4-0.6c0.8-0.8,0.8-2.1,0-2.9c-4.2-4.4-12.4-12.8-13.1-13.6c-0.4-0.5-0.5-0.8-0.5-1.1c0-0.1,0.1-0.2,0.2-0.3
			c1-0.4,3.1-0.3,5.2-0.2c2.4,0.1,5.1,0.3,7.5-0.3c2.4-0.5,4.7-1.5,6.8-2.4c2-0.9,3.9-1.7,5.1-1.7c0.1,0,0.1,0,0.2,0l-4.6,18.6
			c-0.3,1.1,0.4,2.2,1.5,2.4c1.1,0.3,2.2-0.4,2.4-1.5l3.7-15.1l13.1,3.5c1.4,0.4,3.3,1.4,3.5,2c0.7,1.9,2.3,6.2,2.3,6.2
			c0.1,0.4,1.4,4,4.6,4.9c6.7,1.9,14,4.4,18.6,6.3c-0.4,0.8-0.8,1.7-1,2.6c-0.5,2.6,1.7,5.1,2.6,6.3c0.1,0.1,0.2,0.3,0.4,0.4
			c-0.6,1.1-1.3,2.3-2,3.5c-1.7,3-4.3,7.6-5.5,8.4c-1.8,1.4-3.7,1.8-4.1,1.9c-1,0-2-0.1-3-0.3c-1.1-0.2-2.1,0.6-2.3,1.7
			c-0.2,1.1,0.6,2.1,1.7,2.3c1.3,0.2,2.4,0.3,3.6,0.3c0,0,0,0,0.1,0c0.1,0,0.2,0,0.3,0c0.1,0,3.2-0.4,6.2-2.7
			c1.7-1.2,3.6-4.5,6.5-9.6c0.8-1.3,1.6-2.7,2.3-3.9c1.5-1,4.7-5.4,5.4-6.3c0.9-1,1-3.3,0-4.3c-0.7-0.7-5-2.2-7.1-2.9
			c-6.5-3.3-18.7-6.9-21.6-7.7c-0.9-0.3-1.7-1.7-1.9-2.4c0,0-1.6-4.3-2.3-6.2c-1.1-3-5.4-4.3-6.3-4.5l-13.2-3.5l0.1-0.2
			c0.1-0.3,0.4-1.8-0.7-3.1c-0.6-0.7-1.7-1.5-3.8-1.3c-1.9,0.1-4,1-6.4,2.1c-2,0.9-4.1,1.8-6.1,2.2c-1.9,0.4-4.2,0.3-6.4,0.2
			c-2.7-0.1-5.2-0.3-7.1,0.6c-1.3,0.6-2.2,1.7-2.5,3.1c-0.2,0.9-0.1,1.9,0.3,2.8l-8.5,32.2c-1.7,6.3-3.8,8.2-6.9,10.9l-2.1,1.8
			c-1.1,0.9-2.7,2.4-4.9,4.4V306c0-3.1,1.7-5.9,4.3-7.5l47.8-27.6c1.3-0.8,2.8-1.2,4.3-1.2c1.5,0,3,0.4,4.3,1.2l47.8,27.6
			c2.7,1.5,4.3,4.4,4.3,7.5V361.3z"/>
		<path d="M283.2,315.1c2.7,0.2,4.7,1.2,4.7,1.2s-2.8-2.4-2.9-2.3c0.7-2.6-0.9-5.1-0.9-5.1c-3.6,1.5-7.6,3.5-11.1,6.8
			C273,315.7,280.5,314.9,283.2,315.1z"/>
		<path d="M297.6,343.7c-0.5-0.1-0.9,0.2-1,0.7c-0.7,3.8-3.9,7.6-8.2,9.6c-0.4,0.2-0.6,0.7-0.4,1.1c0.1,0.3,0.4,0.5,0.8,0.5
			c0.1,0,0.2,0,0.4-0.1c4.8-2.2,8.4-6.5,9.2-10.8C298.4,344.2,298.1,343.8,297.6,343.7z"/>
		<path d="M292.5,345.1c0.1-0.5-0.2-0.9-0.6-1c-0.5-0.1-0.9,0.2-1,0.6c-0.7,2.9-3.1,5-7.1,6.3c-0.4,0.1-0.7,0.6-0.6,1.1
			c0.1,0.4,0.4,0.6,0.8,0.6c0.1,0,0.2,0,0.2,0C288.8,351.2,291.6,348.7,292.5,345.1z"/>
		<path d="M286.1,345.1c0.1-0.4-0.1-0.9-0.6-1.1c-0.5-0.1-0.9,0.1-1.1,0.6c-0.5,1.5-1.8,2.4-3.9,2.8c-0.5,0.1-0.8,0.5-0.7,1
			c0.1,0.4,0.4,0.7,0.8,0.7c0.1,0,0.1,0,0.2,0C284.4,348.5,285.6,346.6,286.1,345.1z"/>
		<path d="M262,313.6c-0.4,0.1-0.6,0.5-0.5,0.8c0,0,0.8,2.9,0.4,4.9c-0.1,0.4,0.2,0.7,0.6,0.8c0,0,0.1,0,0.1,0
			c0.3,0,0.6-0.2,0.7-0.6c0.4-2.3-0.4-5.3-0.5-5.4C262.7,313.7,262.3,313.5,262,313.6z"/>
		<path d="M258.6,314.8c-0.4,0.1-0.5,0.5-0.4,0.9c0.3,0.8,0.7,2.2,0.5,2.9c-0.1,0.4,0.2,0.7,0.5,0.8c0,0,0.1,0,0.1,0
			c0.3,0,0.6-0.2,0.7-0.5c0.3-1.3-0.5-3.4-0.6-3.7C259.3,314.8,258.9,314.6,258.6,314.8z"/>
	</g>
</g>
</svg>
